<svg xmlns="http://www.w3.org/2000/svg" xmlns:xlink="http://www.w3.org/1999/xlink" version="1.0" x="0px" y="0px" viewBox="0 0 50 50" ><g id="surface1"><path style=" " d="M 25 3 C 12.863281 3 3 12.863281 3 25 C 3 37.136719 12.863281 47 25 47 C 37.136719 47 47 37.136719 47 25 C 47 12.863281 37.136719 3 25 3 Z M 25 5 C 36.058594 5 45 13.941406 45 25 C 45 36.058594 36.058594 45 25 45 C 13.941406 45 5 36.058594 5 25 C 5 13.941406 13.941406 5 25 5 Z M 24 14 L 24 24 L 14 24 L 14 26 L 24 26 L 24 36 L 26 36 L 26 26 L 36 26 L 36 24 L 26 24 L 26 14 Z "></path></g></svg>